<svg width="305" height="358" viewBox="0 0 305 358" fill="none" xmlns="http://www.w3.org/2000/svg">
<g clip-path="url(#clip0)">
<path d="M154.169 151L255.927 327.25H52.4109L154.169 151Z" fill="#C4C4C4"/>
<rect x="154.79" y="219.331" width="235" height="235" transform="rotate(45.2143 154.79 219.331)" fill="#E5E5E5"/>
<path d="M193.414 201.068C210.592 192.039 224.235 177.496 232.149 159.776C240.063 142.057 241.789 122.192 237.049 103.373C232.309 84.5546 221.379 67.8766 206.016 56.0204C190.652 44.1642 171.748 37.8187 152.343 38.0039C132.938 38.1892 114.158 44.8945 99.0242 57.0419C83.89 69.1893 73.2802 86.0729 68.9005 104.979C64.5209 123.884 66.6259 143.713 74.877 161.278C83.1281 178.843 97.0461 193.123 114.393 201.822L153.169 124.5L193.414 201.068Z" fill="#FF6363"/>
</g>
<defs>
<clipPath id="clip0">
<rect width="305" height="358" fill="white"/>
</clipPath>
</defs>
</svg>
